<?xml version="1.0"?>
<svg version="1.1" id="圖層_1" xmlns="http://www.w3.org/2000/svg" x="0" y="0" viewBox="0 0 100 100" xml:space="preserve"><path d="M89.585 75.402L72.477 58.296a9.878 9.878 0 0 0-7.031-2.911l-.108.001a31.299 31.299 0 0 0 4.725-16.499c0-17.249-14.032-31.281-31.28-31.281C21.534 7.605 7.5 21.638 7.5 38.886c0 17.249 14.034 31.282 31.283 31.282a31.281 31.281 0 0 0 16.707-4.857 9.942 9.942 0 0 0 2.912 7.066l17.104 17.098a9.87 9.87 0 0 0 7.041 2.919 9.857 9.857 0 0 0 7.039-2.918 9.894 9.894 0 0 0 2.914-7.039 9.882 9.882 0 0 0-2.915-7.035z" fill="#d1d1d1"/><path d="M87.159 77.828L70.052 60.72c-1.893-1.894-4.652-2.369-6.992-1.459l-2.743-2.744c3.943-4.806 6.316-10.945 6.316-17.632 0-15.357-12.495-27.852-27.85-27.852-15.359 0-27.853 12.495-27.853 27.852 0 15.359 12.491 27.853 27.853 27.853 6.796 0 13.022-2.454 17.861-6.507l2.725 2.726a6.52 6.52 0 0 0 1.457 6.995l17.107 17.101a6.482 6.482 0 0 0 4.612 1.912c1.67 0 3.341-.632 4.612-1.912a6.52 6.52 0 0 0 .002-9.225zM38.783 58.555c-10.851 0-19.677-8.822-19.677-19.67 0-10.85 8.825-19.679 19.677-19.679 10.848 0 19.676 8.827 19.676 19.679 0 10.848-8.828 19.67-19.676 19.67z" fill="#464646"/><metadata xmlns:d="https://loading.io/stock/"><d:name>magnifier</d:name><d:tags>zoom,scale,enlarge,investigate,magnifier,map</d:tags><d:license>free</d:license><d:slug>hud53f</d:slug></metadata></svg>